<mxfile host="Electron" modified="2024-05-24T14:37:23.055Z" agent="Mozilla/5.0 (X11; Linux x86_64) AppleWebKit/537.36 (KHTML, like Gecko) draw.io/24.1.0 Chrome/120.0.6099.109 Electron/28.1.0 Safari/537.36" etag="9oyTiwk5iNI_xHVZj9H1" version="24.1.0" type="device">
  <diagram name="Page-1" id="-cMVqA2Gkwa5aGeDibPs">
    <mxGraphModel dx="1594" dy="1640" grid="1" gridSize="10" guides="1" tooltips="1" connect="1" arrows="1" fold="1" page="0" pageScale="1" pageWidth="413" pageHeight="583" math="1" shadow="0">
      <root>
        <mxCell id="0" />
        <mxCell id="1" parent="0" />
        <mxCell id="eN8Zq5XajQ-hrPbZrUXH-8" value="" style="edgeStyle=orthogonalEdgeStyle;rounded=0;orthogonalLoop=1;jettySize=auto;html=1;" parent="1" source="GCO7xrDp6TmdYOZJOnFd-4" target="GCO7xrDp6TmdYOZJOnFd-120" edge="1">
          <mxGeometry relative="1" as="geometry" />
        </mxCell>
        <mxCell id="GCO7xrDp6TmdYOZJOnFd-4" value="&lt;table&gt;&lt;tbody&gt;&lt;tr&gt;&lt;td&gt;$$-1$$&lt;/td&gt;&lt;/tr&gt;&lt;tr&gt;&lt;td&gt;$$1$$&lt;/td&gt;&lt;/tr&gt;&lt;/tbody&gt;&lt;/table&gt;" style="whiteSpace=wrap;html=1;aspect=fixed;" parent="1" vertex="1">
          <mxGeometry x="40" y="120" width="80" height="80" as="geometry" />
        </mxCell>
        <mxCell id="GCO7xrDp6TmdYOZJOnFd-127" style="edgeStyle=orthogonalEdgeStyle;rounded=0;orthogonalLoop=1;jettySize=auto;html=1;exitX=0.5;exitY=1;exitDx=0;exitDy=0;" parent="1" source="GCO7xrDp6TmdYOZJOnFd-99" edge="1">
          <mxGeometry relative="1" as="geometry">
            <mxPoint x="1000.2" y="190.20000000000005" as="targetPoint" />
          </mxGeometry>
        </mxCell>
        <mxCell id="GCO7xrDp6TmdYOZJOnFd-99" value="$$\frac{Ka}{1+tA*s}$$" style="rounded=0;whiteSpace=wrap;html=1;" parent="1" vertex="1">
          <mxGeometry x="960" y="120" width="80" height="80" as="geometry" />
        </mxCell>
        <mxCell id="GCO7xrDp6TmdYOZJOnFd-110" value="" style="endArrow=none;html=1;exitX=0.5;exitY=0;exitDx=0;exitDy=0;" parent="1" source="GCO7xrDp6TmdYOZJOnFd-99" edge="1">
          <mxGeometry width="50" height="50" relative="1" as="geometry">
            <mxPoint x="1000" y="130" as="sourcePoint" />
            <mxPoint x="1020" y="110" as="targetPoint" />
          </mxGeometry>
        </mxCell>
        <mxCell id="GCO7xrDp6TmdYOZJOnFd-111" value="" style="endArrow=none;html=1;" parent="1" edge="1">
          <mxGeometry width="50" height="50" relative="1" as="geometry">
            <mxPoint x="1020" y="110" as="sourcePoint" />
            <mxPoint x="1040" y="110" as="targetPoint" />
          </mxGeometry>
        </mxCell>
        <mxCell id="GCO7xrDp6TmdYOZJOnFd-112" value="&lt;font style=&quot;font-size: 9px;&quot;&gt;$$VaMaxPu$$&lt;/font&gt;" style="text;html=1;strokeColor=none;fillColor=none;align=center;verticalAlign=middle;whiteSpace=wrap;rounded=0;fontSize=15;" parent="1" vertex="1">
          <mxGeometry x="1004" y="80" width="60" height="30" as="geometry" />
        </mxCell>
        <mxCell id="GCO7xrDp6TmdYOZJOnFd-113" value="" style="endArrow=none;html=1;" parent="1" edge="1">
          <mxGeometry width="50" height="50" relative="1" as="geometry">
            <mxPoint x="961" y="210" as="sourcePoint" />
            <mxPoint x="941" y="210" as="targetPoint" />
          </mxGeometry>
        </mxCell>
        <mxCell id="GCO7xrDp6TmdYOZJOnFd-114" value="&lt;font style=&quot;font-size: 9px;&quot;&gt;$$VaMinPu$$&lt;/font&gt;" style="text;html=1;strokeColor=none;fillColor=none;align=center;verticalAlign=middle;whiteSpace=wrap;rounded=0;fontSize=15;" parent="1" vertex="1">
          <mxGeometry x="920" y="206" width="60" height="30" as="geometry" />
        </mxCell>
        <mxCell id="GCO7xrDp6TmdYOZJOnFd-115" value="" style="endArrow=none;html=1;exitX=0.5;exitY=0;exitDx=0;exitDy=0;entryX=0.25;entryY=1;entryDx=0;entryDy=0;" parent="1" target="GCO7xrDp6TmdYOZJOnFd-99" edge="1">
          <mxGeometry width="50" height="50" relative="1" as="geometry">
            <mxPoint x="961" y="210" as="sourcePoint" />
            <mxPoint x="981" y="190" as="targetPoint" />
          </mxGeometry>
        </mxCell>
        <mxCell id="GCO7xrDp6TmdYOZJOnFd-120" value="&lt;table style=&quot;&quot;&gt;&lt;tbody&gt;&lt;tr&gt;&lt;td&gt;&lt;font style=&quot;font-size: 12px;&quot;&gt;$$+$$&lt;/font&gt;&lt;/td&gt;&lt;/tr&gt;&lt;/tbody&gt;&lt;/table&gt;" style="whiteSpace=wrap;html=1;aspect=fixed;" parent="1" vertex="1">
          <mxGeometry x="200" y="120" width="80" height="80" as="geometry" />
        </mxCell>
        <mxCell id="GCO7xrDp6TmdYOZJOnFd-126" value="$$\frac{Kf}{1+tF*s}$$" style="rounded=0;whiteSpace=wrap;html=1;" parent="1" vertex="1">
          <mxGeometry x="440" y="320" width="80" height="80" as="geometry" />
        </mxCell>
        <mxCell id="eN8Zq5XajQ-hrPbZrUXH-3" value="$$\frac{1}{1+tR*s}$$" style="whiteSpace=wrap;html=1;aspect=fixed;" parent="1" vertex="1">
          <mxGeometry x="-120" y="40" width="80" height="80" as="geometry" />
        </mxCell>
        <mxCell id="Ko5TodTb07DRkb56tdF9-16" value="" style="edgeStyle=orthogonalEdgeStyle;rounded=0;orthogonalLoop=1;jettySize=auto;html=1;" parent="1" source="eN8Zq5XajQ-hrPbZrUXH-25" target="Ko5TodTb07DRkb56tdF9-13" edge="1">
          <mxGeometry relative="1" as="geometry" />
        </mxCell>
        <mxCell id="eN8Zq5XajQ-hrPbZrUXH-25" value="" style="ellipse;whiteSpace=wrap;html=1;aspect=fixed;" parent="1" vertex="1">
          <mxGeometry x="1100" y="140" width="40" height="40" as="geometry" />
        </mxCell>
        <mxCell id="eN8Zq5XajQ-hrPbZrUXH-26" value="+" style="text;html=1;strokeColor=none;fillColor=none;align=center;verticalAlign=middle;whiteSpace=wrap;rounded=0;fontSize=20;" parent="1" vertex="1">
          <mxGeometry x="1060" y="160.5" width="60" height="31" as="geometry" />
        </mxCell>
        <mxCell id="eN8Zq5XajQ-hrPbZrUXH-27" value="-" style="text;html=1;strokeColor=none;fillColor=none;align=center;verticalAlign=middle;whiteSpace=wrap;rounded=0;fontSize=20;" parent="1" vertex="1">
          <mxGeometry x="1113" y="110" width="60" height="30" as="geometry" />
        </mxCell>
        <mxCell id="t_mE9f2brvJdx7QCc9mF-1" value="" style="endArrow=classic;html=1;rounded=0;exitX=1;exitY=0.5;exitDx=0;exitDy=0;entryX=0;entryY=0.25;entryDx=0;entryDy=0;" parent="1" source="eN8Zq5XajQ-hrPbZrUXH-3" target="GCO7xrDp6TmdYOZJOnFd-4" edge="1">
          <mxGeometry width="50" height="50" relative="1" as="geometry">
            <mxPoint x="-10" y="80" as="sourcePoint" />
            <mxPoint x="40" y="30" as="targetPoint" />
            <Array as="points">
              <mxPoint y="80" />
              <mxPoint y="140" />
            </Array>
          </mxGeometry>
        </mxCell>
        <mxCell id="Ko5TodTb07DRkb56tdF9-29" value="" style="edgeStyle=orthogonalEdgeStyle;rounded=0;orthogonalLoop=1;jettySize=auto;html=1;" parent="1" source="hHR6AVDcYujb22-yYQ_T-5" target="Ko5TodTb07DRkb56tdF9-10" edge="1">
          <mxGeometry relative="1" as="geometry" />
        </mxCell>
        <mxCell id="hHR6AVDcYujb22-yYQ_T-5" value="" style="whiteSpace=wrap;html=1;aspect=fixed;" parent="1" vertex="1">
          <mxGeometry x="600" y="120" width="80" height="80" as="geometry" />
        </mxCell>
        <mxCell id="hHR6AVDcYujb22-yYQ_T-7" value="" style="endArrow=none;html=1;" parent="1" edge="1">
          <mxGeometry width="50" height="50" relative="1" as="geometry">
            <mxPoint x="628" y="175" as="sourcePoint" />
            <mxPoint x="652" y="145" as="targetPoint" />
          </mxGeometry>
        </mxCell>
        <mxCell id="hHR6AVDcYujb22-yYQ_T-8" value="" style="endArrow=none;html=1;" parent="1" edge="1">
          <mxGeometry width="50" height="50" relative="1" as="geometry">
            <mxPoint x="652" y="145" as="sourcePoint" />
            <mxPoint x="672" y="145" as="targetPoint" />
          </mxGeometry>
        </mxCell>
        <mxCell id="hHR6AVDcYujb22-yYQ_T-9" value="" style="endArrow=none;html=1;" parent="1" edge="1">
          <mxGeometry width="50" height="50" relative="1" as="geometry">
            <mxPoint x="628" y="175" as="sourcePoint" />
            <mxPoint x="608" y="175" as="targetPoint" />
          </mxGeometry>
        </mxCell>
        <mxCell id="hHR6AVDcYujb22-yYQ_T-10" value="" style="endArrow=classic;html=1;entryX=0;entryY=0.5;entryDx=0;entryDy=0;" parent="1" edge="1">
          <mxGeometry width="50" height="50" relative="1" as="geometry">
            <mxPoint x="560" y="180" as="sourcePoint" />
            <mxPoint x="599.9999999999999" y="180" as="targetPoint" />
          </mxGeometry>
        </mxCell>
        <mxCell id="hHR6AVDcYujb22-yYQ_T-11" value="" style="endArrow=classic;html=1;entryX=0;entryY=0.5;entryDx=0;entryDy=0;" parent="1" edge="1">
          <mxGeometry width="50" height="50" relative="1" as="geometry">
            <mxPoint x="560" y="140" as="sourcePoint" />
            <mxPoint x="599.9999999999999" y="140" as="targetPoint" />
          </mxGeometry>
        </mxCell>
        <mxCell id="Ko5TodTb07DRkb56tdF9-27" value="" style="edgeStyle=orthogonalEdgeStyle;rounded=0;orthogonalLoop=1;jettySize=auto;html=1;" parent="1" source="5HqrGk9MGbXyAHrSEdPO-18" target="Ko5TodTb07DRkb56tdF9-6" edge="1">
          <mxGeometry relative="1" as="geometry" />
        </mxCell>
        <mxCell id="5HqrGk9MGbXyAHrSEdPO-18" value="" style="ellipse;whiteSpace=wrap;html=1;aspect=fixed;" parent="1" vertex="1">
          <mxGeometry x="340" y="140" width="40" height="40" as="geometry" />
        </mxCell>
        <mxCell id="5HqrGk9MGbXyAHrSEdPO-21" value="+" style="text;html=1;strokeColor=none;fillColor=none;align=center;verticalAlign=middle;whiteSpace=wrap;rounded=0;fontSize=20;" parent="1" vertex="1">
          <mxGeometry x="299" y="129.5" width="60" height="30" as="geometry" />
        </mxCell>
        <mxCell id="5HqrGk9MGbXyAHrSEdPO-22" value="-" style="text;html=1;strokeColor=none;fillColor=none;align=center;verticalAlign=middle;whiteSpace=wrap;rounded=0;fontSize=20;" parent="1" vertex="1">
          <mxGeometry x="349" y="178" width="60" height="30" as="geometry" />
        </mxCell>
        <mxCell id="5HqrGk9MGbXyAHrSEdPO-36" value="$$VrMaxPu$$" style="rounded=0;whiteSpace=wrap;html=1;" parent="1" vertex="1">
          <mxGeometry x="1200" y="-120" width="80" height="80" as="geometry" />
        </mxCell>
        <mxCell id="5HqrGk9MGbXyAHrSEdPO-51" value="" style="whiteSpace=wrap;html=1;aspect=fixed;" parent="1" vertex="1">
          <mxGeometry x="1360" y="120" width="80" height="80" as="geometry" />
        </mxCell>
        <mxCell id="5HqrGk9MGbXyAHrSEdPO-53" value="" style="endArrow=none;html=1;" parent="1" edge="1">
          <mxGeometry width="50" height="50" relative="1" as="geometry">
            <mxPoint x="1388" y="175" as="sourcePoint" />
            <mxPoint x="1412" y="145" as="targetPoint" />
          </mxGeometry>
        </mxCell>
        <mxCell id="5HqrGk9MGbXyAHrSEdPO-54" value="" style="endArrow=none;html=1;" parent="1" edge="1">
          <mxGeometry width="50" height="50" relative="1" as="geometry">
            <mxPoint x="1412" y="145" as="sourcePoint" />
            <mxPoint x="1432" y="145" as="targetPoint" />
          </mxGeometry>
        </mxCell>
        <mxCell id="5HqrGk9MGbXyAHrSEdPO-55" value="" style="endArrow=none;html=1;" parent="1" edge="1">
          <mxGeometry width="50" height="50" relative="1" as="geometry">
            <mxPoint x="1388" y="175" as="sourcePoint" />
            <mxPoint x="1368" y="175" as="targetPoint" />
          </mxGeometry>
        </mxCell>
        <mxCell id="5HqrGk9MGbXyAHrSEdPO-56" value="" style="endArrow=classic;html=1;entryX=0;entryY=0.5;entryDx=0;entryDy=0;" parent="1" edge="1">
          <mxGeometry width="50" height="50" relative="1" as="geometry">
            <mxPoint x="1320" y="180" as="sourcePoint" />
            <mxPoint x="1360" y="180" as="targetPoint" />
          </mxGeometry>
        </mxCell>
        <mxCell id="Ko5TodTb07DRkb56tdF9-3" value="" style="whiteSpace=wrap;html=1;aspect=fixed;" parent="1" vertex="1">
          <mxGeometry x="440" y="120" width="80" height="80" as="geometry" />
        </mxCell>
        <mxCell id="Ko5TodTb07DRkb56tdF9-4" value="" style="endArrow=none;html=1;" parent="1" edge="1">
          <mxGeometry width="50" height="50" relative="1" as="geometry">
            <mxPoint x="468" y="175" as="sourcePoint" />
            <mxPoint x="492" y="145" as="targetPoint" />
          </mxGeometry>
        </mxCell>
        <mxCell id="Ko5TodTb07DRkb56tdF9-5" value="" style="endArrow=none;html=1;" parent="1" edge="1">
          <mxGeometry width="50" height="50" relative="1" as="geometry">
            <mxPoint x="492" y="145" as="sourcePoint" />
            <mxPoint x="512" y="145" as="targetPoint" />
          </mxGeometry>
        </mxCell>
        <mxCell id="Ko5TodTb07DRkb56tdF9-6" value="&lt;font style=&quot;font-size: 9px;&quot;&gt;$$ViMaxPu$$&lt;/font&gt;" style="text;html=1;strokeColor=none;fillColor=none;align=center;verticalAlign=middle;whiteSpace=wrap;rounded=0;fontSize=15;" parent="1" vertex="1">
          <mxGeometry x="484" y="90" width="60" height="30" as="geometry" />
        </mxCell>
        <mxCell id="Ko5TodTb07DRkb56tdF9-7" value="" style="endArrow=none;html=1;" parent="1" edge="1">
          <mxGeometry width="50" height="50" relative="1" as="geometry">
            <mxPoint x="468" y="175" as="sourcePoint" />
            <mxPoint x="448" y="175" as="targetPoint" />
          </mxGeometry>
        </mxCell>
        <mxCell id="Ko5TodTb07DRkb56tdF9-8" value="&lt;font style=&quot;font-size: 9px;&quot;&gt;$$ViMinPu$$&lt;/font&gt;" style="text;html=1;strokeColor=none;fillColor=none;align=center;verticalAlign=middle;whiteSpace=wrap;rounded=0;fontSize=15;" parent="1" vertex="1">
          <mxGeometry x="420" y="200" width="60" height="30" as="geometry" />
        </mxCell>
        <mxCell id="Ko5TodTb07DRkb56tdF9-9" value="" style="endArrow=classic;html=1;rounded=0;exitX=1;exitY=0.5;exitDx=0;exitDy=0;entryX=0;entryY=0.5;entryDx=0;entryDy=0;" parent="1" source="Ko5TodTb07DRkb56tdF9-3" target="hHR6AVDcYujb22-yYQ_T-5" edge="1">
          <mxGeometry width="50" height="50" relative="1" as="geometry">
            <mxPoint x="410" y="110" as="sourcePoint" />
            <mxPoint x="460" y="60" as="targetPoint" />
          </mxGeometry>
        </mxCell>
        <mxCell id="Ko5TodTb07DRkb56tdF9-30" value="" style="edgeStyle=orthogonalEdgeStyle;rounded=0;orthogonalLoop=1;jettySize=auto;html=1;" parent="1" source="Ko5TodTb07DRkb56tdF9-10" target="Ko5TodTb07DRkb56tdF9-11" edge="1">
          <mxGeometry relative="1" as="geometry" />
        </mxCell>
        <mxCell id="Ko5TodTb07DRkb56tdF9-10" value="$$\frac{1+tC*s}{1+tB*s}$$" style="whiteSpace=wrap;html=1;aspect=fixed;" parent="1" vertex="1">
          <mxGeometry x="720" y="120" width="80" height="80" as="geometry" />
        </mxCell>
        <mxCell id="Ko5TodTb07DRkb56tdF9-32" value="" style="edgeStyle=orthogonalEdgeStyle;rounded=0;orthogonalLoop=1;jettySize=auto;html=1;" parent="1" source="Ko5TodTb07DRkb56tdF9-11" target="GCO7xrDp6TmdYOZJOnFd-99" edge="1">
          <mxGeometry relative="1" as="geometry" />
        </mxCell>
        <mxCell id="Ko5TodTb07DRkb56tdF9-11" value="$$\frac{1+tC1*s}{1+tB1*s}$$" style="whiteSpace=wrap;html=1;aspect=fixed;" parent="1" vertex="1">
          <mxGeometry x="839" y="120" width="80" height="80" as="geometry" />
        </mxCell>
        <mxCell id="Ko5TodTb07DRkb56tdF9-14" value="" style="edgeStyle=orthogonalEdgeStyle;rounded=0;orthogonalLoop=1;jettySize=auto;html=1;" parent="1" source="Ko5TodTb07DRkb56tdF9-13" target="5HqrGk9MGbXyAHrSEdPO-51" edge="1">
          <mxGeometry relative="1" as="geometry" />
        </mxCell>
        <mxCell id="Ko5TodTb07DRkb56tdF9-13" value="&lt;table style=&quot;&quot;&gt;&lt;tbody&gt;&lt;tr&gt;&lt;td&gt;&lt;font style=&quot;font-size: 12px;&quot;&gt;$$+$$&lt;/font&gt;&lt;/td&gt;&lt;/tr&gt;&lt;/tbody&gt;&lt;/table&gt;" style="whiteSpace=wrap;html=1;aspect=fixed;" parent="1" vertex="1">
          <mxGeometry x="1200" y="120" width="80" height="80" as="geometry" />
        </mxCell>
        <mxCell id="Ko5TodTb07DRkb56tdF9-17" value="" style="endArrow=classic;html=1;rounded=0;exitX=1;exitY=0.5;exitDx=0;exitDy=0;entryX=1;entryY=0.5;entryDx=0;entryDy=0;" parent="1" source="5HqrGk9MGbXyAHrSEdPO-51" target="GCO7xrDp6TmdYOZJOnFd-126" edge="1">
          <mxGeometry width="50" height="50" relative="1" as="geometry">
            <mxPoint x="1270" y="100" as="sourcePoint" />
            <mxPoint x="1320" y="50" as="targetPoint" />
            <Array as="points">
              <mxPoint x="1480" y="160" />
              <mxPoint x="1480" y="360" />
            </Array>
          </mxGeometry>
        </mxCell>
        <mxCell id="Ko5TodTb07DRkb56tdF9-25" value="" style="edgeStyle=orthogonalEdgeStyle;rounded=0;orthogonalLoop=1;jettySize=auto;html=1;entryX=0;entryY=0.5;entryDx=0;entryDy=0;" parent="1" source="Ko5TodTb07DRkb56tdF9-18" target="oQHEXhu7vaGYwjuGMwpZ-3" edge="1">
          <mxGeometry relative="1" as="geometry">
            <mxPoint x="1680" y="160" as="targetPoint" />
          </mxGeometry>
        </mxCell>
        <mxCell id="Ko5TodTb07DRkb56tdF9-18" value="" style="whiteSpace=wrap;html=1;aspect=fixed;" parent="1" vertex="1">
          <mxGeometry x="1560" y="120" width="80" height="80" as="geometry" />
        </mxCell>
        <mxCell id="Ko5TodTb07DRkb56tdF9-19" value="" style="endArrow=none;html=1;" parent="1" edge="1">
          <mxGeometry width="50" height="50" relative="1" as="geometry">
            <mxPoint x="1588" y="175" as="sourcePoint" />
            <mxPoint x="1612" y="145" as="targetPoint" />
          </mxGeometry>
        </mxCell>
        <mxCell id="Ko5TodTb07DRkb56tdF9-20" value="" style="endArrow=none;html=1;" parent="1" edge="1">
          <mxGeometry width="50" height="50" relative="1" as="geometry">
            <mxPoint x="1612" y="145" as="sourcePoint" />
            <mxPoint x="1632" y="145" as="targetPoint" />
          </mxGeometry>
        </mxCell>
        <mxCell id="Ko5TodTb07DRkb56tdF9-21" value="" style="endArrow=none;html=1;" parent="1" edge="1">
          <mxGeometry width="50" height="50" relative="1" as="geometry">
            <mxPoint x="1588" y="175" as="sourcePoint" />
            <mxPoint x="1568" y="175" as="targetPoint" />
          </mxGeometry>
        </mxCell>
        <mxCell id="Ko5TodTb07DRkb56tdF9-24" value="" style="endArrow=classic;html=1;rounded=0;exitX=1;exitY=0.5;exitDx=0;exitDy=0;entryX=0;entryY=0.5;entryDx=0;entryDy=0;" parent="1" source="5HqrGk9MGbXyAHrSEdPO-51" target="Ko5TodTb07DRkb56tdF9-18" edge="1">
          <mxGeometry width="50" height="50" relative="1" as="geometry">
            <mxPoint x="1270" y="440" as="sourcePoint" />
            <mxPoint x="1320" y="390" as="targetPoint" />
          </mxGeometry>
        </mxCell>
        <mxCell id="Ko5TodTb07DRkb56tdF9-26" value="" style="endArrow=classic;html=1;rounded=0;exitX=0;exitY=0.5;exitDx=0;exitDy=0;entryX=0.5;entryY=1;entryDx=0;entryDy=0;" parent="1" source="GCO7xrDp6TmdYOZJOnFd-126" target="5HqrGk9MGbXyAHrSEdPO-18" edge="1">
          <mxGeometry width="50" height="50" relative="1" as="geometry">
            <mxPoint x="280" y="440" as="sourcePoint" />
            <mxPoint x="330" y="260" as="targetPoint" />
            <Array as="points">
              <mxPoint x="360" y="360" />
            </Array>
          </mxGeometry>
        </mxCell>
        <mxCell id="Ko5TodTb07DRkb56tdF9-28" value="" style="endArrow=classic;html=1;rounded=0;exitX=1;exitY=0.5;exitDx=0;exitDy=0;entryX=0;entryY=0.5;entryDx=0;entryDy=0;" parent="1" source="GCO7xrDp6TmdYOZJOnFd-120" target="5HqrGk9MGbXyAHrSEdPO-18" edge="1">
          <mxGeometry width="50" height="50" relative="1" as="geometry">
            <mxPoint x="280" y="270" as="sourcePoint" />
            <mxPoint x="330" y="220" as="targetPoint" />
          </mxGeometry>
        </mxCell>
        <mxCell id="Ko5TodTb07DRkb56tdF9-34" value="" style="endArrow=classic;html=1;rounded=0;exitX=1;exitY=0.5;exitDx=0;exitDy=0;entryX=0;entryY=0.5;entryDx=0;entryDy=0;" parent="1" source="GCO7xrDp6TmdYOZJOnFd-99" target="eN8Zq5XajQ-hrPbZrUXH-25" edge="1">
          <mxGeometry width="50" height="50" relative="1" as="geometry">
            <mxPoint x="1010" y="140" as="sourcePoint" />
            <mxPoint x="1060" y="90" as="targetPoint" />
          </mxGeometry>
        </mxCell>
        <mxCell id="Ko5TodTb07DRkb56tdF9-35" value="&lt;table style=&quot;&quot;&gt;&lt;tbody&gt;&lt;tr&gt;&lt;td&gt;&lt;font style=&quot;font-size: 12px;&quot;&gt;$$+$$&lt;/font&gt;&lt;/td&gt;&lt;/tr&gt;&lt;/tbody&gt;&lt;/table&gt;" style="whiteSpace=wrap;html=1;aspect=fixed;" parent="1" vertex="1">
          <mxGeometry x="1360" y="-200" width="80" height="80" as="geometry" />
        </mxCell>
        <mxCell id="Ko5TodTb07DRkb56tdF9-36" value="$$VrMinPu$$" style="rounded=0;whiteSpace=wrap;html=1;" parent="1" vertex="1">
          <mxGeometry x="1200" y="399" width="80" height="80" as="geometry" />
        </mxCell>
        <mxCell id="Ko5TodTb07DRkb56tdF9-37" value="$$Klr$$" style="rounded=0;whiteSpace=wrap;html=1;" parent="1" vertex="1">
          <mxGeometry x="960" y="-280" width="80" height="80" as="geometry" />
        </mxCell>
        <mxCell id="Ko5TodTb07DRkb56tdF9-38" value="" style="endArrow=none;dashed=1;html=1;dashPattern=1 3;strokeWidth=2;rounded=0;exitX=1;exitY=0.5;exitDx=0;exitDy=0;entryX=0;entryY=0.5;entryDx=0;entryDy=0;" parent="1" source="oQHEXhu7vaGYwjuGMwpZ-4" target="eN8Zq5XajQ-hrPbZrUXH-3" edge="1">
          <mxGeometry width="50" height="50" relative="1" as="geometry">
            <mxPoint x="-200" y="80" as="sourcePoint" />
            <mxPoint x="230" y="-110" as="targetPoint" />
          </mxGeometry>
        </mxCell>
        <mxCell id="Ko5TodTb07DRkb56tdF9-39" value="" style="endArrow=none;dashed=1;html=1;dashPattern=1 3;strokeWidth=2;rounded=0;exitX=1;exitY=0.5;exitDx=0;exitDy=0;entryX=0;entryY=0.5;entryDx=0;entryDy=0;" parent="1" source="oQHEXhu7vaGYwjuGMwpZ-4" target="Ko5TodTb07DRkb56tdF9-36" edge="1">
          <mxGeometry width="50" height="50" relative="1" as="geometry">
            <mxPoint x="-200" y="80" as="sourcePoint" />
            <mxPoint x="230" y="-110" as="targetPoint" />
            <Array as="points">
              <mxPoint x="-160" y="80" />
              <mxPoint x="-160" y="440" />
            </Array>
          </mxGeometry>
        </mxCell>
        <mxCell id="Ko5TodTb07DRkb56tdF9-40" value="" style="endArrow=none;dashed=1;html=1;dashPattern=1 3;strokeWidth=2;rounded=0;exitX=1;exitY=0.5;exitDx=0;exitDy=0;entryX=0;entryY=0.5;entryDx=0;entryDy=0;" parent="1" source="oQHEXhu7vaGYwjuGMwpZ-4" target="5HqrGk9MGbXyAHrSEdPO-36" edge="1">
          <mxGeometry width="50" height="50" relative="1" as="geometry">
            <mxPoint x="-200" y="80" as="sourcePoint" />
            <mxPoint x="550" y="10" as="targetPoint" />
            <Array as="points">
              <mxPoint x="-160" y="80" />
              <mxPoint x="-160" y="-80" />
            </Array>
          </mxGeometry>
        </mxCell>
        <mxCell id="Ko5TodTb07DRkb56tdF9-41" value="$$-Kc$$" style="rounded=0;whiteSpace=wrap;html=1;" parent="1" vertex="1">
          <mxGeometry x="1200" y="-440" width="80" height="80" as="geometry" />
        </mxCell>
        <mxCell id="Ko5TodTb07DRkb56tdF9-53" value="" style="edgeStyle=orthogonalEdgeStyle;rounded=0;orthogonalLoop=1;jettySize=auto;html=1;" parent="1" source="Ko5TodTb07DRkb56tdF9-42" target="Ko5TodTb07DRkb56tdF9-37" edge="1">
          <mxGeometry relative="1" as="geometry" />
        </mxCell>
        <mxCell id="Ko5TodTb07DRkb56tdF9-42" value="" style="whiteSpace=wrap;html=1;aspect=fixed;" parent="1" vertex="1">
          <mxGeometry x="840" y="-280" width="80" height="80" as="geometry" />
        </mxCell>
        <mxCell id="Ko5TodTb07DRkb56tdF9-43" value="" style="endArrow=none;html=1;" parent="1" edge="1">
          <mxGeometry width="50" height="50" relative="1" as="geometry">
            <mxPoint x="868" y="-225" as="sourcePoint" />
            <mxPoint x="892" y="-255" as="targetPoint" />
          </mxGeometry>
        </mxCell>
        <mxCell id="Ko5TodTb07DRkb56tdF9-46" value="" style="endArrow=none;html=1;" parent="1" edge="1">
          <mxGeometry width="50" height="50" relative="1" as="geometry">
            <mxPoint x="868" y="-225" as="sourcePoint" />
            <mxPoint x="848" y="-225" as="targetPoint" />
          </mxGeometry>
        </mxCell>
        <mxCell id="Ko5TodTb07DRkb56tdF9-47" value="&lt;font style=&quot;font-size: 12px;&quot;&gt;$$0$$&lt;/font&gt;" style="text;html=1;strokeColor=none;fillColor=none;align=center;verticalAlign=middle;whiteSpace=wrap;rounded=0;fontSize=15;" parent="1" vertex="1">
          <mxGeometry x="820" y="-200" width="60" height="30" as="geometry" />
        </mxCell>
        <mxCell id="Ko5TodTb07DRkb56tdF9-48" value="&lt;table&gt;&lt;tbody&gt;&lt;tr&gt;&lt;td&gt;$$1$$&lt;/td&gt;&lt;/tr&gt;&lt;tr&gt;&lt;td&gt;$$-1$$&lt;/td&gt;&lt;/tr&gt;&lt;/tbody&gt;&lt;/table&gt;" style="whiteSpace=wrap;html=1;aspect=fixed;" parent="1" vertex="1">
          <mxGeometry x="720" y="-280" width="80" height="80" as="geometry" />
        </mxCell>
        <mxCell id="Ko5TodTb07DRkb56tdF9-49" value="$$Klr$$" style="rounded=0;whiteSpace=wrap;html=1;" parent="1" vertex="1">
          <mxGeometry x="560" y="-200" width="80" height="80" as="geometry" />
        </mxCell>
        <mxCell id="Ko5TodTb07DRkb56tdF9-50" value="" style="endArrow=classic;html=1;rounded=0;exitX=1;exitY=0.5;exitDx=0;exitDy=0;entryX=0;entryY=0.75;entryDx=0;entryDy=0;" parent="1" source="Ko5TodTb07DRkb56tdF9-49" target="Ko5TodTb07DRkb56tdF9-48" edge="1">
          <mxGeometry width="50" height="50" relative="1" as="geometry">
            <mxPoint x="460" y="-140" as="sourcePoint" />
            <mxPoint x="510" y="-190" as="targetPoint" />
            <Array as="points">
              <mxPoint x="680" y="-160" />
              <mxPoint x="680" y="-220" />
            </Array>
          </mxGeometry>
        </mxCell>
        <mxCell id="Ko5TodTb07DRkb56tdF9-51" value="" style="endArrow=classic;html=1;rounded=0;exitX=1;exitY=0.5;exitDx=0;exitDy=0;entryX=0;entryY=0.25;entryDx=0;entryDy=0;" parent="1" source="oQHEXhu7vaGYwjuGMwpZ-1" target="Ko5TodTb07DRkb56tdF9-48" edge="1">
          <mxGeometry width="50" height="50" relative="1" as="geometry">
            <mxPoint x="-200" y="-400" as="sourcePoint" />
            <mxPoint x="360" y="-10" as="targetPoint" />
            <Array as="points">
              <mxPoint x="680" y="-400" />
              <mxPoint x="680" y="-260" />
            </Array>
          </mxGeometry>
        </mxCell>
        <mxCell id="Ko5TodTb07DRkb56tdF9-52" value="" style="endArrow=classic;html=1;rounded=0;exitX=1;exitY=0.5;exitDx=0;exitDy=0;entryX=0;entryY=0.5;entryDx=0;entryDy=0;" parent="1" source="Ko5TodTb07DRkb56tdF9-48" target="Ko5TodTb07DRkb56tdF9-42" edge="1">
          <mxGeometry width="50" height="50" relative="1" as="geometry">
            <mxPoint x="310" y="-40" as="sourcePoint" />
            <mxPoint x="360" y="-90" as="targetPoint" />
          </mxGeometry>
        </mxCell>
        <mxCell id="Ko5TodTb07DRkb56tdF9-54" value="" style="endArrow=classic;html=1;rounded=0;exitX=1;exitY=0.5;exitDx=0;exitDy=0;entryX=0.5;entryY=0;entryDx=0;entryDy=0;" parent="1" source="Ko5TodTb07DRkb56tdF9-37" target="eN8Zq5XajQ-hrPbZrUXH-25" edge="1">
          <mxGeometry width="50" height="50" relative="1" as="geometry">
            <mxPoint x="690" y="40" as="sourcePoint" />
            <mxPoint x="740" y="-10" as="targetPoint" />
            <Array as="points">
              <mxPoint x="1120" y="-240" />
            </Array>
          </mxGeometry>
        </mxCell>
        <mxCell id="Ko5TodTb07DRkb56tdF9-55" value="" style="endArrow=classic;html=1;rounded=0;exitX=1;exitY=0.5;exitDx=0;exitDy=0;entryX=0;entryY=0.5;entryDx=0;entryDy=0;" parent="1" source="oQHEXhu7vaGYwjuGMwpZ-1" target="Ko5TodTb07DRkb56tdF9-41" edge="1">
          <mxGeometry width="50" height="50" relative="1" as="geometry">
            <mxPoint x="240" y="40" as="sourcePoint" />
            <mxPoint x="290" y="-10" as="targetPoint" />
          </mxGeometry>
        </mxCell>
        <mxCell id="Ko5TodTb07DRkb56tdF9-56" value="" style="endArrow=classic;html=1;rounded=0;exitX=1;exitY=0.5;exitDx=0;exitDy=0;entryX=0;entryY=0.25;entryDx=0;entryDy=0;" parent="1" source="Ko5TodTb07DRkb56tdF9-41" target="Ko5TodTb07DRkb56tdF9-35" edge="1">
          <mxGeometry width="50" height="50" relative="1" as="geometry">
            <mxPoint x="790" y="40" as="sourcePoint" />
            <mxPoint x="840" y="-10" as="targetPoint" />
            <Array as="points">
              <mxPoint x="1320" y="-400" />
              <mxPoint x="1320" y="-180" />
            </Array>
          </mxGeometry>
        </mxCell>
        <mxCell id="Ko5TodTb07DRkb56tdF9-57" value="" style="endArrow=classic;html=1;rounded=0;exitX=1;exitY=0.5;exitDx=0;exitDy=0;entryX=0;entryY=0.75;entryDx=0;entryDy=0;" parent="1" source="5HqrGk9MGbXyAHrSEdPO-36" target="Ko5TodTb07DRkb56tdF9-35" edge="1">
          <mxGeometry width="50" height="50" relative="1" as="geometry">
            <mxPoint x="790" y="40" as="sourcePoint" />
            <mxPoint x="840" y="-10" as="targetPoint" />
            <Array as="points">
              <mxPoint x="1320" y="-80" />
              <mxPoint x="1320" y="-140" />
            </Array>
          </mxGeometry>
        </mxCell>
        <mxCell id="Ko5TodTb07DRkb56tdF9-58" value="" style="endArrow=classic;html=1;rounded=0;exitX=1;exitY=0.5;exitDx=0;exitDy=0;entryX=0;entryY=0.25;entryDx=0;entryDy=0;" parent="1" source="Ko5TodTb07DRkb56tdF9-35" target="Ko5TodTb07DRkb56tdF9-18" edge="1">
          <mxGeometry width="50" height="50" relative="1" as="geometry">
            <mxPoint x="790" y="40" as="sourcePoint" />
            <mxPoint x="840" y="-10" as="targetPoint" />
            <Array as="points">
              <mxPoint x="1520" y="-160" />
              <mxPoint x="1520" y="140" />
            </Array>
          </mxGeometry>
        </mxCell>
        <mxCell id="Ko5TodTb07DRkb56tdF9-59" value="" style="endArrow=classic;html=1;rounded=0;exitX=1;exitY=0.5;exitDx=0;exitDy=0;entryX=0;entryY=0.75;entryDx=0;entryDy=0;" parent="1" source="Ko5TodTb07DRkb56tdF9-36" target="Ko5TodTb07DRkb56tdF9-18" edge="1">
          <mxGeometry width="50" height="50" relative="1" as="geometry">
            <mxPoint x="1430" y="40" as="sourcePoint" />
            <mxPoint x="1480" y="-10" as="targetPoint" />
            <Array as="points">
              <mxPoint x="1520" y="439" />
              <mxPoint x="1520" y="180" />
            </Array>
          </mxGeometry>
        </mxCell>
        <mxCell id="oQHEXhu7vaGYwjuGMwpZ-1" value="$$IrPu$$" style="text;strokeColor=none;align=center;fillColor=none;html=1;verticalAlign=middle;whiteSpace=wrap;rounded=0;" vertex="1" parent="1">
          <mxGeometry x="580" y="-415" width="60" height="30" as="geometry" />
        </mxCell>
        <mxCell id="oQHEXhu7vaGYwjuGMwpZ-3" value="$$EfdPu$$" style="text;strokeColor=none;align=center;fillColor=none;html=1;verticalAlign=middle;whiteSpace=wrap;rounded=0;" vertex="1" parent="1">
          <mxGeometry x="1680" y="145" width="60" height="30" as="geometry" />
        </mxCell>
        <mxCell id="oQHEXhu7vaGYwjuGMwpZ-4" value="$$UsPu$$" style="text;strokeColor=none;align=center;fillColor=none;html=1;verticalAlign=middle;whiteSpace=wrap;rounded=0;" vertex="1" parent="1">
          <mxGeometry x="-260" y="65" width="60" height="30" as="geometry" />
        </mxCell>
        <mxCell id="oQHEXhu7vaGYwjuGMwpZ-5" value="$$UsRefPu$$" style="text;strokeColor=none;align=center;fillColor=none;html=1;verticalAlign=middle;whiteSpace=wrap;rounded=0;" vertex="1" parent="1">
          <mxGeometry x="-120" y="225" width="80" height="30" as="geometry" />
        </mxCell>
        <mxCell id="oQHEXhu7vaGYwjuGMwpZ-6" value="" style="endArrow=classic;html=1;rounded=0;exitX=1;exitY=0.5;exitDx=0;exitDy=0;entryX=0;entryY=0.75;entryDx=0;entryDy=0;" edge="1" parent="1" source="oQHEXhu7vaGYwjuGMwpZ-5" target="GCO7xrDp6TmdYOZJOnFd-4">
          <mxGeometry width="50" height="50" relative="1" as="geometry">
            <mxPoint x="280" y="120" as="sourcePoint" />
            <mxPoint x="330" y="70" as="targetPoint" />
            <Array as="points">
              <mxPoint y="240" />
              <mxPoint y="180" />
            </Array>
          </mxGeometry>
        </mxCell>
        <mxCell id="oQHEXhu7vaGYwjuGMwpZ-7" value="$$UPssPu(2)$$" style="text;strokeColor=none;align=center;fillColor=none;html=1;verticalAlign=middle;whiteSpace=wrap;rounded=0;" vertex="1" parent="1">
          <mxGeometry x="1200" y="65" width="80" height="30" as="geometry" />
        </mxCell>
        <mxCell id="oQHEXhu7vaGYwjuGMwpZ-8" value="$$UPssPu(1)$$" style="text;strokeColor=none;align=center;fillColor=none;html=1;verticalAlign=middle;whiteSpace=wrap;rounded=0;" vertex="1" parent="1">
          <mxGeometry x="40" y="65" width="80" height="30" as="geometry" />
        </mxCell>
        <mxCell id="oQHEXhu7vaGYwjuGMwpZ-9" value="" style="endArrow=classic;html=1;rounded=0;exitX=0;exitY=0.5;exitDx=0;exitDy=0;entryX=0;entryY=0.25;entryDx=0;entryDy=0;" edge="1" parent="1" source="oQHEXhu7vaGYwjuGMwpZ-7" target="Ko5TodTb07DRkb56tdF9-13">
          <mxGeometry width="50" height="50" relative="1" as="geometry">
            <mxPoint x="850" y="120" as="sourcePoint" />
            <mxPoint x="900" y="70" as="targetPoint" />
            <Array as="points">
              <mxPoint x="1160" y="80" />
              <mxPoint x="1160" y="140" />
            </Array>
          </mxGeometry>
        </mxCell>
        <mxCell id="oQHEXhu7vaGYwjuGMwpZ-10" value="" style="endArrow=classic;html=1;rounded=0;exitX=1;exitY=0.5;exitDx=0;exitDy=0;entryX=0;entryY=0.25;entryDx=0;entryDy=0;" edge="1" parent="1" source="oQHEXhu7vaGYwjuGMwpZ-8" target="GCO7xrDp6TmdYOZJOnFd-120">
          <mxGeometry width="50" height="50" relative="1" as="geometry">
            <mxPoint x="90" y="120" as="sourcePoint" />
            <mxPoint x="140" y="70" as="targetPoint" />
            <Array as="points">
              <mxPoint x="160" y="80" />
              <mxPoint x="160" y="140" />
            </Array>
          </mxGeometry>
        </mxCell>
        <mxCell id="oQHEXhu7vaGYwjuGMwpZ-11" value="$$UOelPu(2)$$" style="text;strokeColor=none;align=center;fillColor=none;html=1;verticalAlign=middle;whiteSpace=wrap;rounded=0;" vertex="1" parent="1">
          <mxGeometry x="440" y="25" width="80" height="30" as="geometry" />
        </mxCell>
        <mxCell id="oQHEXhu7vaGYwjuGMwpZ-12" value="$$UOelPu(1)$$" style="text;strokeColor=none;align=center;fillColor=none;html=1;verticalAlign=middle;whiteSpace=wrap;rounded=0;" vertex="1" parent="1">
          <mxGeometry x="40" y="25" width="80" height="30" as="geometry" />
        </mxCell>
        <mxCell id="oQHEXhu7vaGYwjuGMwpZ-13" value="$$USclOelPu(2)$$" style="text;strokeColor=none;align=center;fillColor=none;html=1;verticalAlign=middle;whiteSpace=wrap;rounded=0;" vertex="1" parent="1">
          <mxGeometry x="420" y="-15" width="100" height="30" as="geometry" />
        </mxCell>
        <mxCell id="oQHEXhu7vaGYwjuGMwpZ-14" value="$$USclOelPu(1)$$" style="text;strokeColor=none;align=center;fillColor=none;html=1;verticalAlign=middle;whiteSpace=wrap;rounded=0;" vertex="1" parent="1">
          <mxGeometry x="20" y="-15" width="100" height="30" as="geometry" />
        </mxCell>
        <mxCell id="oQHEXhu7vaGYwjuGMwpZ-15" value="$$UOelPu(3)$$" style="text;strokeColor=none;align=center;fillColor=none;html=1;verticalAlign=middle;whiteSpace=wrap;rounded=0;" vertex="1" parent="1">
          <mxGeometry x="1200" y="25" width="80" height="30" as="geometry" />
        </mxCell>
        <mxCell id="oQHEXhu7vaGYwjuGMwpZ-16" value="$$USclOelPu(3)$$" style="text;strokeColor=none;align=center;fillColor=none;html=1;verticalAlign=middle;whiteSpace=wrap;rounded=0;" vertex="1" parent="1">
          <mxGeometry x="1180" y="-15" width="100" height="30" as="geometry" />
        </mxCell>
        <mxCell id="oQHEXhu7vaGYwjuGMwpZ-17" value="" style="endArrow=classic;html=1;rounded=0;exitX=1;exitY=0.5;exitDx=0;exitDy=0;entryX=0;entryY=0.25;entryDx=0;entryDy=0;" edge="1" parent="1" source="oQHEXhu7vaGYwjuGMwpZ-11" target="hHR6AVDcYujb22-yYQ_T-5">
          <mxGeometry width="50" height="50" relative="1" as="geometry">
            <mxPoint x="780" y="120" as="sourcePoint" />
            <mxPoint x="830" y="70" as="targetPoint" />
            <Array as="points">
              <mxPoint x="560" y="40" />
              <mxPoint x="560" y="140" />
            </Array>
          </mxGeometry>
        </mxCell>
        <mxCell id="oQHEXhu7vaGYwjuGMwpZ-18" value="" style="endArrow=classic;html=1;rounded=0;exitX=1;exitY=0.5;exitDx=0;exitDy=0;entryX=0;entryY=0.25;entryDx=0;entryDy=0;" edge="1" parent="1" source="oQHEXhu7vaGYwjuGMwpZ-13" target="hHR6AVDcYujb22-yYQ_T-5">
          <mxGeometry width="50" height="50" relative="1" as="geometry">
            <mxPoint x="780" y="120" as="sourcePoint" />
            <mxPoint x="830" y="70" as="targetPoint" />
            <Array as="points">
              <mxPoint x="560" />
              <mxPoint x="560" y="140" />
            </Array>
          </mxGeometry>
        </mxCell>
        <mxCell id="oQHEXhu7vaGYwjuGMwpZ-19" value="" style="endArrow=classic;html=1;rounded=0;exitX=1;exitY=0.5;exitDx=0;exitDy=0;entryX=0;entryY=0.25;entryDx=0;entryDy=0;" edge="1" parent="1" source="oQHEXhu7vaGYwjuGMwpZ-12" target="GCO7xrDp6TmdYOZJOnFd-120">
          <mxGeometry width="50" height="50" relative="1" as="geometry">
            <mxPoint x="430" y="120" as="sourcePoint" />
            <mxPoint x="480" y="70" as="targetPoint" />
            <Array as="points">
              <mxPoint x="160" y="40" />
              <mxPoint x="160" y="140" />
            </Array>
          </mxGeometry>
        </mxCell>
        <mxCell id="oQHEXhu7vaGYwjuGMwpZ-20" value="" style="endArrow=classic;html=1;rounded=0;exitX=1;exitY=0.5;exitDx=0;exitDy=0;entryX=0;entryY=0.25;entryDx=0;entryDy=0;" edge="1" parent="1" source="oQHEXhu7vaGYwjuGMwpZ-14" target="GCO7xrDp6TmdYOZJOnFd-120">
          <mxGeometry width="50" height="50" relative="1" as="geometry">
            <mxPoint x="430" y="120" as="sourcePoint" />
            <mxPoint x="480" y="70" as="targetPoint" />
            <Array as="points">
              <mxPoint x="160" />
              <mxPoint x="160" y="140" />
            </Array>
          </mxGeometry>
        </mxCell>
        <mxCell id="oQHEXhu7vaGYwjuGMwpZ-21" value="" style="endArrow=classic;html=1;rounded=0;exitX=1;exitY=0.5;exitDx=0;exitDy=0;entryX=0;entryY=0.25;entryDx=0;entryDy=0;" edge="1" parent="1" source="oQHEXhu7vaGYwjuGMwpZ-15" target="5HqrGk9MGbXyAHrSEdPO-51">
          <mxGeometry width="50" height="50" relative="1" as="geometry">
            <mxPoint x="810" y="120" as="sourcePoint" />
            <mxPoint x="860" y="70" as="targetPoint" />
            <Array as="points">
              <mxPoint x="1320" y="40" />
              <mxPoint x="1320" y="140" />
            </Array>
          </mxGeometry>
        </mxCell>
        <mxCell id="oQHEXhu7vaGYwjuGMwpZ-22" value="" style="endArrow=classic;html=1;rounded=0;exitX=1;exitY=0.5;exitDx=0;exitDy=0;entryX=0;entryY=0.25;entryDx=0;entryDy=0;" edge="1" parent="1" source="oQHEXhu7vaGYwjuGMwpZ-16" target="5HqrGk9MGbXyAHrSEdPO-51">
          <mxGeometry width="50" height="50" relative="1" as="geometry">
            <mxPoint x="1260" y="120" as="sourcePoint" />
            <mxPoint x="1310" y="70" as="targetPoint" />
            <Array as="points">
              <mxPoint x="1320" />
              <mxPoint x="1320" y="140" />
            </Array>
          </mxGeometry>
        </mxCell>
        <mxCell id="oQHEXhu7vaGYwjuGMwpZ-23" value="$$UUelPu(2)$$" style="text;strokeColor=none;align=center;fillColor=none;html=1;verticalAlign=middle;whiteSpace=wrap;rounded=0;" vertex="1" parent="1">
          <mxGeometry x="440" y="225" width="80" height="30" as="geometry" />
        </mxCell>
        <mxCell id="oQHEXhu7vaGYwjuGMwpZ-24" value="$$UUelPu(1)$$" style="text;strokeColor=none;align=center;fillColor=none;html=1;verticalAlign=middle;whiteSpace=wrap;rounded=0;" vertex="1" parent="1">
          <mxGeometry x="40" y="225" width="80" height="30" as="geometry" />
        </mxCell>
        <mxCell id="oQHEXhu7vaGYwjuGMwpZ-25" value="$$UUelPu(3)$$" style="text;strokeColor=none;align=center;fillColor=none;html=1;verticalAlign=middle;whiteSpace=wrap;rounded=0;" vertex="1" parent="1">
          <mxGeometry x="1200" y="225" width="80" height="30" as="geometry" />
        </mxCell>
        <mxCell id="oQHEXhu7vaGYwjuGMwpZ-26" value="$$USclUelPu(1)$$" style="text;strokeColor=none;align=center;fillColor=none;html=1;verticalAlign=middle;whiteSpace=wrap;rounded=0;" vertex="1" parent="1">
          <mxGeometry x="20" y="265" width="100" height="30" as="geometry" />
        </mxCell>
        <mxCell id="oQHEXhu7vaGYwjuGMwpZ-27" value="$$USclUelPu(2)$$" style="text;strokeColor=none;align=center;fillColor=none;html=1;verticalAlign=middle;whiteSpace=wrap;rounded=0;" vertex="1" parent="1">
          <mxGeometry x="420" y="265" width="100" height="30" as="geometry" />
        </mxCell>
        <mxCell id="oQHEXhu7vaGYwjuGMwpZ-28" value="$$USclUelPu(3)$$" style="text;strokeColor=none;align=center;fillColor=none;html=1;verticalAlign=middle;whiteSpace=wrap;rounded=0;" vertex="1" parent="1">
          <mxGeometry x="1180" y="265" width="100" height="30" as="geometry" />
        </mxCell>
        <mxCell id="oQHEXhu7vaGYwjuGMwpZ-29" value="" style="endArrow=classic;html=1;rounded=0;exitX=1;exitY=0.5;exitDx=0;exitDy=0;entryX=0;entryY=0.75;entryDx=0;entryDy=0;" edge="1" parent="1" source="oQHEXhu7vaGYwjuGMwpZ-24" target="GCO7xrDp6TmdYOZJOnFd-120">
          <mxGeometry width="50" height="50" relative="1" as="geometry">
            <mxPoint x="150" y="240" as="sourcePoint" />
            <mxPoint x="200" y="190" as="targetPoint" />
            <Array as="points">
              <mxPoint x="160" y="240" />
              <mxPoint x="160" y="180" />
            </Array>
          </mxGeometry>
        </mxCell>
        <mxCell id="oQHEXhu7vaGYwjuGMwpZ-30" value="" style="endArrow=classic;html=1;rounded=0;exitX=1;exitY=0.5;exitDx=0;exitDy=0;entryX=0;entryY=0.75;entryDx=0;entryDy=0;" edge="1" parent="1" source="oQHEXhu7vaGYwjuGMwpZ-26" target="GCO7xrDp6TmdYOZJOnFd-120">
          <mxGeometry width="50" height="50" relative="1" as="geometry">
            <mxPoint x="150" y="240" as="sourcePoint" />
            <mxPoint x="200" y="190" as="targetPoint" />
            <Array as="points">
              <mxPoint x="160" y="280" />
              <mxPoint x="160" y="180" />
            </Array>
          </mxGeometry>
        </mxCell>
        <mxCell id="oQHEXhu7vaGYwjuGMwpZ-31" value="" style="endArrow=classic;html=1;rounded=0;exitX=1;exitY=0.5;exitDx=0;exitDy=0;entryX=0;entryY=0.75;entryDx=0;entryDy=0;" edge="1" parent="1" source="oQHEXhu7vaGYwjuGMwpZ-23" target="hHR6AVDcYujb22-yYQ_T-5">
          <mxGeometry width="50" height="50" relative="1" as="geometry">
            <mxPoint x="570" y="275" as="sourcePoint" />
            <mxPoint x="620" y="225" as="targetPoint" />
            <Array as="points">
              <mxPoint x="560" y="240" />
              <mxPoint x="560" y="180" />
            </Array>
          </mxGeometry>
        </mxCell>
        <mxCell id="oQHEXhu7vaGYwjuGMwpZ-32" value="" style="endArrow=classic;html=1;rounded=0;exitX=1;exitY=0.5;exitDx=0;exitDy=0;entryX=0;entryY=0.75;entryDx=0;entryDy=0;" edge="1" parent="1" source="oQHEXhu7vaGYwjuGMwpZ-27" target="hHR6AVDcYujb22-yYQ_T-5">
          <mxGeometry width="50" height="50" relative="1" as="geometry">
            <mxPoint x="560" y="280" as="sourcePoint" />
            <mxPoint x="610" y="230" as="targetPoint" />
            <Array as="points">
              <mxPoint x="560" y="280" />
              <mxPoint x="560" y="180" />
            </Array>
          </mxGeometry>
        </mxCell>
        <mxCell id="oQHEXhu7vaGYwjuGMwpZ-33" value="" style="endArrow=classic;html=1;rounded=0;exitX=1;exitY=0.5;exitDx=0;exitDy=0;entryX=0;entryY=0.75;entryDx=0;entryDy=0;" edge="1" parent="1" source="oQHEXhu7vaGYwjuGMwpZ-25" target="5HqrGk9MGbXyAHrSEdPO-51">
          <mxGeometry width="50" height="50" relative="1" as="geometry">
            <mxPoint x="880" y="240" as="sourcePoint" />
            <mxPoint x="930" y="190" as="targetPoint" />
            <Array as="points">
              <mxPoint x="1320" y="240" />
              <mxPoint x="1320" y="180" />
            </Array>
          </mxGeometry>
        </mxCell>
        <mxCell id="oQHEXhu7vaGYwjuGMwpZ-34" value="" style="endArrow=classic;html=1;rounded=0;exitX=1;exitY=0.5;exitDx=0;exitDy=0;entryX=0;entryY=0.75;entryDx=0;entryDy=0;" edge="1" parent="1" source="oQHEXhu7vaGYwjuGMwpZ-28" target="5HqrGk9MGbXyAHrSEdPO-51">
          <mxGeometry width="50" height="50" relative="1" as="geometry">
            <mxPoint x="880" y="240" as="sourcePoint" />
            <mxPoint x="930" y="190" as="targetPoint" />
            <Array as="points">
              <mxPoint x="1320" y="280" />
              <mxPoint x="1320" y="180" />
            </Array>
          </mxGeometry>
        </mxCell>
      </root>
    </mxGraphModel>
  </diagram>
</mxfile>
